<svg xmlns="http://www.w3.org/2000/svg" viewBox="0 0 175 175" width="175" height="175">
  <rect x="77" y="11" width="10" height="10" fill="#1a7a3a"/>
  <rect x="88" y="11" width="10" height="10" fill="#1a7a3a"/>
  <rect x="66" y="22" width="10" height="10" fill="#1a7a3a"/>
  <rect x="77" y="22" width="10" height="10" fill="#1a7a3a"/>
  <rect x="88" y="22" width="10" height="10" fill="#1a7a3a"/>
  <rect x="99" y="22" width="10" height="10" fill="#1a7a3a"/>
  <rect x="66" y="33" width="10" height="10" fill="#1a7a3a"/>
  <rect x="77" y="33" width="10" height="10" fill="#1a7a3a"/>
  <rect x="88" y="33" width="10" height="10" fill="#1a7a3a"/>
  <rect x="99" y="33" width="10" height="10" fill="#1a7a3a"/>
  <rect x="77" y="44" width="10" height="10" fill="#1a7a3a"/>
  <rect x="88" y="44" width="10" height="10" fill="#1a7a3a"/>
  <rect x="22" y="55" width="10" height="10" fill="#1a7a3a"/>
  <rect x="33" y="55" width="10" height="10" fill="#1a7a3a"/>
  <rect x="66" y="55" width="10" height="10" fill="#1a7a3a"/>
  <rect x="77" y="55" width="10" height="10" fill="#1a7a3a"/>
  <rect x="88" y="55" width="10" height="10" fill="#1a7a3a"/>
  <rect x="99" y="55" width="10" height="10" fill="#1a7a3a"/>
  <rect x="132" y="55" width="10" height="10" fill="#1a7a3a"/>
  <rect x="143" y="55" width="10" height="10" fill="#1a7a3a"/>
  <rect x="33" y="66" width="10" height="10" fill="#1a7a3a"/>
  <rect x="44" y="66" width="10" height="10" fill="#1a7a3a"/>
  <rect x="55" y="66" width="10" height="10" fill="#1a7a3a"/>
  <rect x="66" y="66" width="10" height="10" fill="#1a7a3a"/>
  <rect x="77" y="66" width="10" height="10" fill="#1a7a3a"/>
  <rect x="88" y="66" width="10" height="10" fill="#1a7a3a"/>
  <rect x="99" y="66" width="10" height="10" fill="#1a7a3a"/>
  <rect x="110" y="66" width="10" height="10" fill="#1a7a3a"/>
  <rect x="121" y="66" width="10" height="10" fill="#1a7a3a"/>
  <rect x="132" y="66" width="10" height="10" fill="#1a7a3a"/>
  <rect x="44" y="77" width="10" height="10" fill="#1a7a3a"/>
  <rect x="55" y="77" width="10" height="10" fill="#1a7a3a"/>
  <rect x="66" y="77" width="10" height="10" fill="#1a7a3a"/>
  <rect x="77" y="77" width="10" height="10" fill="#1a7a3a"/>
  <rect x="88" y="77" width="10" height="10" fill="#1a7a3a"/>
  <rect x="99" y="77" width="10" height="10" fill="#1a7a3a"/>
  <rect x="110" y="77" width="10" height="10" fill="#1a7a3a"/>
  <rect x="121" y="77" width="10" height="10" fill="#1a7a3a"/>
  <rect x="33" y="88" width="10" height="10" fill="#1a7a3a"/>
  <rect x="44" y="88" width="10" height="10" fill="#1a7a3a"/>
  <rect x="55" y="88" width="10" height="10" fill="#1a7a3a"/>
  <rect x="66" y="88" width="10" height="10" fill="#1a7a3a"/>
  <rect x="77" y="88" width="10" height="10" fill="#1a7a3a"/>
  <rect x="88" y="88" width="10" height="10" fill="#1a7a3a"/>
  <rect x="99" y="88" width="10" height="10" fill="#1a7a3a"/>
  <rect x="110" y="88" width="10" height="10" fill="#1a7a3a"/>
  <rect x="121" y="88" width="10" height="10" fill="#1a7a3a"/>
  <rect x="132" y="88" width="10" height="10" fill="#1a7a3a"/>
  <rect x="33" y="99" width="10" height="10" fill="#1a7a3a"/>
  <rect x="44" y="99" width="10" height="10" fill="#1a7a3a"/>
  <rect x="55" y="99" width="10" height="10" fill="#1a7a3a"/>
  <rect x="66" y="99" width="10" height="10" fill="#1a7a3a"/>
  <rect x="77" y="99" width="10" height="10" fill="#1a7a3a"/>
  <rect x="88" y="99" width="10" height="10" fill="#1a7a3a"/>
  <rect x="99" y="99" width="10" height="10" fill="#1a7a3a"/>
  <rect x="110" y="99" width="10" height="10" fill="#1a7a3a"/>
  <rect x="121" y="99" width="10" height="10" fill="#1a7a3a"/>
  <rect x="132" y="99" width="10" height="10" fill="#1a7a3a"/>
  <rect x="33" y="110" width="10" height="10" fill="#1a7a3a"/>
  <rect x="44" y="110" width="10" height="10" fill="#1a7a3a"/>
  <rect x="55" y="110" width="10" height="10" fill="#1a7a3a"/>
  <rect x="66" y="110" width="10" height="10" fill="#1a7a3a"/>
  <rect x="77" y="110" width="10" height="10" fill="#1a7a3a"/>
  <rect x="88" y="110" width="10" height="10" fill="#1a7a3a"/>
  <rect x="99" y="110" width="10" height="10" fill="#1a7a3a"/>
  <rect x="110" y="110" width="10" height="10" fill="#1a7a3a"/>
  <rect x="121" y="110" width="10" height="10" fill="#1a7a3a"/>
  <rect x="132" y="110" width="10" height="10" fill="#1a7a3a"/>
  <rect x="33" y="121" width="10" height="10" fill="#1a7a3a"/>
  <rect x="44" y="121" width="10" height="10" fill="#1a7a3a"/>
  <rect x="55" y="121" width="10" height="10" fill="#1a7a3a"/>
  <rect x="66" y="121" width="10" height="10" fill="#1a7a3a"/>
  <rect x="77" y="121" width="10" height="10" fill="#1a7a3a"/>
  <rect x="88" y="121" width="10" height="10" fill="#1a7a3a"/>
  <rect x="99" y="121" width="10" height="10" fill="#1a7a3a"/>
  <rect x="110" y="121" width="10" height="10" fill="#1a7a3a"/>
  <rect x="121" y="121" width="10" height="10" fill="#1a7a3a"/>
  <rect x="132" y="121" width="10" height="10" fill="#1a7a3a"/>
  <rect x="44" y="132" width="10" height="10" fill="#1a7a3a"/>
  <rect x="55" y="132" width="10" height="10" fill="#1a7a3a"/>
  <rect x="66" y="132" width="10" height="10" fill="#1a7a3a"/>
  <rect x="77" y="132" width="10" height="10" fill="#1a7a3a"/>
  <rect x="88" y="132" width="10" height="10" fill="#1a7a3a"/>
  <rect x="99" y="132" width="10" height="10" fill="#1a7a3a"/>
  <rect x="110" y="132" width="10" height="10" fill="#1a7a3a"/>
  <rect x="121" y="132" width="10" height="10" fill="#1a7a3a"/>
  <rect x="33" y="143" width="10" height="10" fill="#1a7a3a"/>
  <rect x="55" y="143" width="10" height="10" fill="#1a7a3a"/>
  <rect x="66" y="143" width="10" height="10" fill="#1a7a3a"/>
  <rect x="77" y="143" width="10" height="10" fill="#1a7a3a"/>
  <rect x="88" y="143" width="10" height="10" fill="#1a7a3a"/>
  <rect x="99" y="143" width="10" height="10" fill="#1a7a3a"/>
  <rect x="110" y="143" width="10" height="10" fill="#1a7a3a"/>
  <rect x="132" y="143" width="10" height="10" fill="#1a7a3a"/>
  <rect x="22" y="154" width="10" height="10" fill="#1a7a3a"/>
  <rect x="33" y="154" width="10" height="10" fill="#1a7a3a"/>
  <rect x="77" y="154" width="10" height="10" fill="#1a7a3a"/>
  <rect x="88" y="154" width="10" height="10" fill="#1a7a3a"/>
  <rect x="132" y="154" width="10" height="10" fill="#1a7a3a"/>
  <rect x="143" y="154" width="10" height="10" fill="#1a7a3a"/>
</svg>